<svg xmlns="http://www.w3.org/2000/svg" x="0" y="0" version="1.1" width="400" height="63.7" viewBox="0 0 400 63.7" xml:space="preserve">
  <defs/>
  <style>
    .st0{fill:#3f3d56}
  </style>
  <path d="M92 48.2l2 5.9 2 7.5s5.1 2.7 5.5.8c.4-2-2-2.4-2-2.4l-.9-4 5.9-10.6L92 48.2zM125.3 45.8l3.5 16.1s2.7 1.6 4.7.8-1.2-2.7-1.2-2.7 1.2-9.8 7.1-11c5.9-1.2-14.1-3.2-14.1-3.2z" class="st0"/>
  <path d="M148.4 27s-7.8 2.7-14.9 1.2c0 0-13.7-2-14.9-2.4-1.2-.4-14.5-1.2-21.6 0 0 0-19.6-15.3-8.6-22 0 0 4.7 2.4 5.9.8.4-.6.2-1.3-.2-2C93.1 1 91.3 0 89.5 0 85.3-.1 78 1.3 81.3 14.7c.9 3.7 2.7 7.1 5.1 10.1 1.8 2.2 3.6 5.3 2.7 7.7-1.6 4.3-2 11-2 11l-5.5 8.2s-3.1 10.2-3.1 10.6c0 .4 4.3 1.2 5.1.4.8-.8-1.2-2.4-1.2-2.4s1.6-3.1 4.3-3.9c2.7-.8 10.2-3.5 11.4-4.7 1.2-1.2 26.3-8.2 33.3-1.6 4 3.8 8.2 7.3 12.5 10.6 0 0 2 2.7 4.3 2.7 2.4 0 2.7-3.5 0-3.9-2.7-.4-6.7-9.8-6.7-9.8s-1.2-7.1 4.7-8.2c3.3-.7 5.2-.7 6.3-.6.9.1 1.7-.2 2.4-.8.7-.7 1.3-1.4 1.9-2.2.3-.4.4-.9.2-1.4-.5-1.4-.9-2.9-1.3-4.4-.4-2-3.5-3.5-3.5-3.5s-.8-5.5-2-3.9c-.4.8-1.1 1.5-1.8 2.3z" class="st0"/>
  <path fill="#2f2e41" d="M0 62.5h400v1.2H0z"/>
</svg>
