<svg xmlns="http://www.w3.org/2000/svg" width="30" height="24" viewBox="0 0 30 24">
  <defs/>
  <style>
    .st0{fill:#00a7e5}
  </style>
  <path d="M24.9 18.3l-.8 2.3-.8 2.9s-2 1.1-2.1.3.8-.9.8-.9l.4-1.5-2.3-4c0-.1 4.8.9 4.8.9zm-12.7-.9l-1.4 6.1s-1.1.6-1.8.3c-.8-.3.5-1.1.5-1.1s-.4-3.7-2.7-4.2c-2.2-.4 5.4-1.1 5.4-1.1z" class="st0"/>
  <path d="M3.4 10.2s2.9 1.1 5.6.5c0 0 5.2-.8 5.6-.9s5.5-.5 8.2 0c0 0 7.4-5.8 3.2-8.4 0 0-1.8.9-2.3.3 0-.2.1-.5.3-.7.5-.6 1.1-1 1.8-1 1.7 0 4.4.5 3.2 5.6-.4 1.4-1.1 2.7-2 3.8-.7.8-1.4 2-1.1 2.9.6 1.7.8 4.2.8 4.2l2.1 3.1s1.2 3.8 1.2 4-1.7.5-2 .2c-.3-.3.5-.9.5-.9s-.6-1.2-1.7-1.5c-1.1-.3-3.8-1.4-4.4-1.8-.5-.5-10-3.1-12.6-.6-1.5 1.4-3.1 2.8-4.7 4 0 0-.8 1.1-1.7 1.1s-1.1-1.4 0-1.5S6 18.8 6 18.8s.5-2.7-1.8-3.1c-1.3-.3-2-.3-2.4-.2-.4.1-.7-.1-.9-.3l-.8-.8c-.1-.2-.1-.4-.1-.6.2-.5.4-1.1.5-1.7.2-.8 1.4-1.4 1.4-1.4s.3-2.1.8-1.5c.2.5.5.7.7 1z" class="st0"/>
</svg>
